v 0.4130 0.1530 2.5717
v 0.4375 0.1530 2.5295
v 0.4375 -0.1396 2.5295
v 0.4130 -0.1396 2.5717
v 0.3994 0.1530 2.6185
v 0.3994 -0.1396 2.6185
v 0.3976 0.1530 2.6680
v 0.3976 -0.1396 2.6680
v 0.4088 0.1530 2.7179
v 0.4088 -0.1396 2.7179
v 0.4378 0.1530 2.7709
v 0.4378 -0.1396 2.7709
v 0.4797 0.1530 2.8114
v 0.4797 -0.1396 2.8114
v 0.5308 0.1530 2.8379
v 0.5308 -0.1396 2.8379
v 0.5879 0.1530 2.8487
v 0.5879 -0.1396 2.8487
v 0.7481 0.1530 3.0876
v 0.7481 -0.1396 3.0876
v 0.9148 0.1530 3.2605
v 0.9148 -0.1396 3.2605
v 1.0729 0.1530 3.3528
v 1.0729 -0.1396 3.3528
v 1.2071 0.1530 3.3503
v 1.2071 -0.1396 3.3503
v 1.2883 0.1530 3.2645
v 1.2883 -0.1396 3.2645
v 1.3242 0.1530 3.1139
v 1.3242 -0.1396 3.1139
v 1.3154 0.1530 2.9134
v 1.3154 -0.1396 2.9134
v 1.2630 0.1530 2.6776
v 1.2630 -0.1396 2.6776
v 1.2506 0.1530 2.6166
v 1.2506 -0.1396 2.6166
v 1.2513 0.1530 2.5581
v 1.2513 -0.1396 2.5581
v 1.2668 0.1530 2.5066
v 1.2668 -0.1396 2.5066
v 1.2989 0.1530 2.4667
v 1.2989 -0.1396 2.4667
v 1.3957 0.1530 2.3901
v 1.3957 -0.1396 2.3901
v 2.0862 0.1530 0.4930
v 2.0862 -0.1396 0.4930
v 1.9676 0.1530 0.2647
v 1.9676 -0.1396 0.2647
v 1.9536 0.1530 0.2209
v 1.9536 -0.1396 0.2209
v 1.9550 0.1530 0.1761
v 1.9550 -0.1396 0.1761
v 1.9708 0.1530 0.1342
v 1.9708 -0.1396 0.1342
v 2.0005 0.1530 0.0992
v 2.0005 -0.1396 0.0992
v 2.1927 0.1530 -0.0621
v 2.1927 -0.1396 -0.0621
v 2.1081 0.1530 -0.5416
v 2.1081 -0.1396 -0.5416
v 2.0039 0.1530 -0.5796
v 2.0039 -0.1396 -0.5796
v 1.9748 0.1530 -0.5990
v 1.9748 -0.1396 -0.5990
v 1.9579 0.1530 -0.6291
v 1.9579 -0.1396 -0.6291
v 1.9549 0.1530 -0.6647
v 1.9549 -0.1396 -0.6647
v 1.9679 0.1530 -0.7007
v 1.9679 -0.1396 -0.7007
v 2.0164 0.1530 -0.8021
v 2.0164 -0.1396 -0.8021
v 2.0414 0.1530 -0.9121
v 2.0414 -0.1396 -0.9121
v 2.0412 0.1530 -1.0267
v 2.0412 -0.1396 -1.0267
v 2.0139 0.1530 -1.1418
v 2.0139 -0.1396 -1.1418
v 1.9447 0.1530 -1.2707
v 1.9447 -0.1396 -1.2707
v 1.8453 0.1530 -1.3715
v 1.8453 -0.1396 -1.3715
v 1.7236 0.1530 -1.4403
v 1.7236 -0.1396 -1.4403
v 1.5874 0.1530 -1.4735
v 1.5874 -0.1396 -1.4735
v 1.6158 0.1530 -1.6217
v 1.6158 -0.1396 -1.6217
v 1.5992 0.1530 -1.7707
v 1.5992 -0.1396 -1.7707
v 1.5387 0.1530 -1.9099
v 1.5387 -0.1396 -1.9099
v 1.4353 0.1530 -2.0284
v 1.4353 -0.1396 -2.0284
v 1.2582 0.1530 -2.1249
v 1.2582 -0.1396 -2.1249
v 1.0645 0.1530 -2.1452
v 1.0645 -0.1396 -2.1452
v 0.8773 0.1530 -2.0916
v 0.8773 -0.1396 -2.0916
v 0.7197 0.1530 -1.9658
v 0.7197 -0.1396 -1.9658
v 0.7190 0.1530 -1.9650
v 0.7190 -0.1396 -1.9650
v 0.6854 0.1530 -1.9351
v 0.6854 -0.1396 -1.9351
v 0.6459 0.1530 -1.9173
v 0.6459 -0.1396 -1.9173
v 0.6041 0.1530 -1.9130
v 0.6041 -0.1396 -1.9130
v 0.5631 0.1530 -1.9235
v 0.5631 -0.1396 -1.9235
v 0.5270 0.1530 -1.9397
v 0.5270 -0.1396 -1.9397
v 0.4905 0.1530 -1.9552
v 0.4905 -0.1396 -1.9552
v 0.4534 0.1530 -1.9700
v 0.4534 -0.1396 -1.9700
v 0.4161 0.1530 -1.9841
v 0.4161 -0.1396 -1.9841
v 0.0392 0.1530 -2.0804
v 0.0392 -0.1396 -2.0804
v -0.3456 0.1530 -2.1013
v -0.3456 -0.1396 -2.1013
v -0.7272 0.1530 -2.0470
v -0.7272 -0.1396 -2.0470
v -1.0941 0.1530 -1.9182
v -1.0941 -0.1396 -1.9182
v -1.4288 0.1530 -1.7198
v -1.4288 -0.1396 -1.7198
v -1.7157 0.1530 -1.4624
v -1.7157 -0.1396 -1.4624
v -1.9471 0.1530 -1.1542
v -1.9471 -0.1396 -1.1542
v -2.1154 0.1530 -0.8036
v -2.1154 -0.1396 -0.8036
v -2.2119 0.1530 -0.4267
v -2.2119 -0.1396 -0.4267
v -2.2327 0.1530 -0.0419
v -2.2327 -0.1396 -0.0419
v -2.1784 0.1530 0.3397
v -2.1784 -0.1396 0.3397
v -2.0495 0.1530 0.7066
v -2.0495 -0.1396 0.7066
v -1.8512 0.1530 1.0413
v -1.8512 -0.1396 1.0413
v -1.5938 0.1530 1.3281
v -1.5938 -0.1396 1.3281
v -1.2857 0.1530 1.5595
v -1.2857 -0.1396 1.5595
v -0.9350 0.1530 1.7279
v -0.9350 -0.1396 1.7279
v -0.6460 0.1530 1.8089
v -0.6460 -0.1396 1.8089
v -0.3508 0.1530 1.8448
v -0.3508 -0.1396 1.8448
v -0.0546 0.1530 1.8359
v -0.0546 -0.1396 1.8359
v 0.2376 0.1530 1.7822
v 0.2376 -0.1396 1.7822
v 0.3374 0.1530 1.9011
v 0.3374 -0.1396 1.9011
v 0.3285 0.1530 2.0295
v 0.3285 -0.1396 2.0295
v 0.3425 0.1530 2.1807
v 0.3425 -0.1396 2.1807
v 0.3789 0.1530 2.3492
v 0.3789 -0.1396 2.3492
v 0.0093 -0.1396 0.0141
v 0.0093 0.1530 0.0141
v 1.3666 -0.1396 1.6525
v 1.3666 0.1530 1.6525
v 0.6584 -0.1396 2.2902
v 0.6584 0.1530 2.2902
v 1.0823 -0.1396 2.9894
v 0.5505 -0.1396 2.6787
v 0.5505 0.1530 2.6787
v 1.0823 0.1530 2.9894
vn -0.9193 0.0000 -0.3934
vn -0.8646 0.0000 -0.5025
vn -0.9875 0.0000 -0.1576
vn -0.9957 0.0000 0.0932
vn -0.9356 0.0000 0.3530
vn -0.7955 0.0000 0.6059
vn -0.5840 0.0000 0.8118
vn -0.3266 0.0000 0.9452
vn -0.1865 0.0000 0.9825
vn -0.7781 0.0000 0.6281
vn -0.8306 0.0000 0.5569
vn -0.6178 0.0000 0.7863
vn -0.2525 0.0000 0.9676
vn 0.0181 0.0000 0.9998
vn 0.8796 0.0000 0.4757
vn 0.7263 0.0000 0.6874
vn 0.9955 0.0000 0.0948
vn 0.9914 0.0000 -0.1309
vn 0.9782 0.0000 -0.2075
vn 0.9956 0.0000 -0.0940
vn 0.9886 0.0000 0.1504
vn 0.8846 0.0000 0.4664
vn 0.7037 0.0000 0.7105
vn 0.6204 0.0000 0.7843
vn 0.9397 0.0000 0.3420
vn 0.9235 0.0000 -0.3837
vn 0.8873 0.0000 -0.4612
vn 0.9904 0.0000 -0.1385
vn 0.9807 0.0000 0.1954
vn 0.8616 0.0000 0.5075
vn 0.7059 0.0000 0.7083
vn 0.6428 0.0000 0.7660
vn 0.9848 0.0000 -0.1737
vn 0.4531 0.0000 -0.8915
vn 0.3420 0.0000 -0.9397
vn 0.7340 0.0000 -0.6791
vn 0.9558 0.0000 -0.2942
vn 0.9915 0.0000 0.1303
vn 0.9228 0.0000 0.3852
vn 0.9444 0.0000 0.3288
vn 0.9938 0.0000 0.1110
vn 0.9931 0.0000 -0.1171
vn 0.9348 0.0000 -0.3551
vn 0.8045 0.0000 -0.5939
vn 0.6078 0.0000 -0.7941
vn 0.3683 0.0000 -0.9297
vn 0.2374 0.0000 -0.9714
vn 0.9992 0.0000 0.0393
vn 0.9821 0.0000 0.1883
vn 0.9663 0.0000 -0.2575
vn 0.8451 0.0000 -0.5345
vn 0.6256 0.0000 -0.7802
vn 0.2971 0.0000 -0.9548
vn -0.0871 0.0000 -0.9962
vn -0.4584 0.0000 -0.8888
vn -0.6986 0.0000 -0.7155
vn -0.7175 0.0000 -0.6966
vn -0.5440 0.0000 -0.8391
vn -0.2601 0.0000 -0.9656
vn 0.0738 0.0000 -0.9973
vn 0.3304 0.0000 -0.9438
vn 0.4006 0.0000 -0.9162
vn 0.3808 0.0000 -0.9247
vn 0.3612 0.0000 -0.9325
vn 0.3001 0.0000 -0.9539
vn 0.1516 0.0000 -0.9884
vn -0.0436 0.0000 -0.9990
vn -0.2373 0.0000 -0.9714
vn -0.4226 0.0000 -0.9063
vn -0.5916 0.0000 -0.8062
vn -0.7373 0.0000 -0.6756
vn -0.8546 0.0000 -0.5192
vn -0.9397 0.0000 -0.3420
vn -0.9884 0.0000 -0.1516
vn -0.9990 0.0000 0.0436
vn -0.9714 0.0000 0.2373
vn -0.9063 0.0000 0.4226
vn -0.8062 0.0000 0.5917
vn -0.6756 0.0000 0.7373
vn -0.5192 0.0000 0.8546
vn -0.3526 0.0000 0.9358
vn -0.1958 0.0000 0.9806
vn -0.0455 0.0000 0.9990
vn 0.1058 0.0000 0.9944
vn 0.1807 0.0000 0.9835
vn -0.7663 0.0000 0.6425
vn -0.9999 0.0000 0.0117
vn -0.9976 0.0000 -0.0687
vn -0.9884 0.0000 0.1519
vn -0.9655 0.0000 0.2604
vn -0.9511 0.0000 0.3089
vn -0.0000 -1.0000 -0.0000
vn -0.0000 1.0000 -0.0000
# 3ds Max Wavefront OBJ Exporter v0.97b - (c)2007 guruware
# File Created: 30.01.2022 17:17:02

#
# object mirage
#

# 178 vertices

# 93 vertex normals

vt -0.0039 0.0000 0.0000
vt 0.6915 0.1506 0.0000
vt 0.6949 0.1454 0.0000
vt 0.7353 0.5035 0.0000
vt 0.8897 0.3262 0.0000
vt 0.8825 0.3512 0.0000
vt 0.8965 0.3988 0.0000
vt 0.9067 0.4500 0.0000
vt 0.9129 0.5038 0.0000
vt 0.9150 0.5595 0.0000
vt 0.9115 0.6314 0.0000
vt 0.9011 0.7000 0.0000
vt 0.8842 0.7632 0.0000
vt 0.8613 0.8191 0.0000
vt 0.8333 0.8650 0.0000
vt 0.8017 0.8987 0.0000
vt 0.7674 0.9195 0.0000
vt 0.7314 0.9267 0.0000
vt 0.6954 0.9195 0.0000
vt 0.6612 0.8987 0.0000
vt 0.6296 0.8650 0.0000
vt 0.6016 0.8191 0.0000
vt 0.5787 0.7632 0.0000
vt 0.5618 0.7000 0.0000
vt 0.5514 0.6314 0.0000
vt 0.5478 0.5595 0.0000
vt 0.5479 0.5520 0.0000
vt 0.5480 0.5446 0.0000
vt 0.5482 0.5373 0.0000
vt 0.5484 0.5299 0.0000
vt 0.5481 0.5221 0.0000
vt 0.5464 0.5151 0.0000
vt 0.5435 0.5093 0.0000
vt 0.5399 0.5053 0.0000
vt 0.5398 0.5053 0.0000
vt 0.5238 0.4857 0.0000
vt 0.5131 0.4564 0.0000
vt 0.5088 0.4213 0.0000
vt 0.5115 0.3842 0.0000
vt 0.5186 0.3586 0.0000
vt 0.5288 0.3392 0.0000
vt 0.5413 0.3268 0.0000
vt 0.5552 0.3224 0.0000
vt 0.5538 0.2965 0.0000
vt 0.5559 0.2708 0.0000
vt 0.5615 0.2471 0.0000
vt 0.5706 0.2268 0.0000
vt 0.5798 0.2147 0.0000
vt 0.5898 0.2073 0.0000
vt 0.6002 0.2047 0.0000
vt 0.6106 0.2068 0.0000
vt 0.6142 0.2067 0.0000
vt 0.6172 0.2039 0.0000
vt 0.6193 0.1991 0.0000
vt 0.6200 0.1928 0.0000
vt 0.6200 0.1721 0.0000
vt 0.6592 0.1269 0.0000
vt 0.6794 0.1502 0.0000
vt 0.6834 0.1531 0.0000
vt 0.6876 0.1533 0.0000
vt 0.3058 0.1454 0.0000
vt 0.3092 0.1506 0.0000
vt 0.2655 0.5035 0.0000
vt 0.3132 0.1533 0.0000
vt 0.3173 0.1531 0.0000
vt 0.3213 0.1502 0.0000
vt 0.3415 0.1269 0.0000
vt 0.3807 0.1721 0.0000
vt 0.3807 0.1928 0.0000
vt 0.3815 0.1991 0.0000
vt 0.3836 0.2039 0.0000
vt 0.3866 0.2067 0.0000
vt 0.3902 0.2068 0.0000
vt 0.4006 0.2047 0.0000
vt 0.4110 0.2073 0.0000
vt 0.4210 0.2147 0.0000
vt 0.4302 0.2268 0.0000
vt 0.4392 0.2471 0.0000
vt 0.4449 0.2708 0.0000
vt 0.4470 0.2965 0.0000
vt 0.4456 0.3224 0.0000
vt 0.4594 0.3268 0.0000
vt 0.4719 0.3392 0.0000
vt 0.4822 0.3586 0.0000
vt 0.4892 0.3842 0.0000
vt 0.4920 0.4213 0.0000
vt 0.4876 0.4564 0.0000
vt 0.4770 0.4857 0.0000
vt 0.4610 0.5053 0.0000
vt 0.4609 0.5053 0.0000
vt 0.4572 0.5093 0.0000
vt 0.4544 0.5151 0.0000
vt 0.4527 0.5221 0.0000
vt 0.4523 0.5299 0.0000
vt 0.4526 0.5373 0.0000
vt 0.4528 0.5446 0.0000
vt 0.4529 0.5520 0.0000
vt 0.4529 0.5595 0.0000
vt 0.4494 0.6314 0.0000
vt 0.4390 0.7000 0.0000
vt 0.4221 0.7632 0.0000
vt 0.3992 0.8191 0.0000
vt 0.3712 0.8650 0.0000
vt 0.3396 0.8987 0.0000
vt 0.3053 0.9195 0.0000
vt 0.2693 0.9267 0.0000
vt 0.2333 0.9195 0.0000
vt 0.1991 0.8987 0.0000
vt 0.1675 0.8650 0.0000
vt 0.1395 0.8191 0.0000
vt 0.1166 0.7632 0.0000
vt 0.0997 0.7000 0.0000
vt 0.0893 0.6314 0.0000
vt 0.0857 0.5595 0.0000
vt 0.0879 0.5038 0.0000
vt 0.0941 0.4500 0.0000
vt 0.1043 0.3988 0.0000
vt 0.1183 0.3512 0.0000
vt 0.1111 0.3262 0.0000
vt 0.7111 0.1102 0.0000
vt 0.8353 0.1622 0.0000
vt 0.8988 0.1102 0.0000
vt 0.9085 0.1222 0.0000
vt 0.9131 0.1253 0.0000
vt 0.0877 0.1253 0.0000
vt 0.1655 0.1622 0.0000
vt 0.0922 0.1222 0.0000
vt 0.1020 0.1102 0.0000
vt 0.2897 0.1102 0.0000
vt 0.9180 0.1247 0.0000
vt 0.9135 0.2453 0.0000
vt 0.9414 0.2687 0.0000
vt 0.9275 0.2904 0.0000
vt 0.9140 0.3075 0.0000
vt 0.9012 0.3195 0.0000
vt 0.0996 0.3195 0.0000
vt 0.0873 0.2453 0.0000
vt 0.0868 0.3075 0.0000
vt 0.0732 0.2904 0.0000
vt 0.0594 0.2687 0.0000
vt 0.0827 0.1247 0.0000
vt 0.9232 0.1211 0.0000
vt 0.9611 0.1268 0.0000
vt 0.9281 0.1151 0.0000
vt 0.9470 0.0909 0.0000
vt 0.9643 0.0766 0.0000
vt 0.9786 0.0733 0.0000
vt 0.9887 0.0821 0.0000
vt 0.9931 0.1054 0.0000
vt 0.9901 0.1388 0.0000
vt 0.9803 0.1790 0.0000
vt 0.9645 0.2221 0.0000
vt 0.9509 0.2395 0.0000
vt 0.9654 0.2328 0.0000
vt 0.9647 0.2434 0.0000
vt 0.9625 0.2533 0.0000
vt 0.9588 0.2617 0.0000
vt 0.9548 0.2669 0.0000
vt 0.9504 0.2697 0.0000
vt 0.9459 0.2703 0.0000
vt 0.0549 0.2703 0.0000
vt 0.0499 0.2395 0.0000
vt 0.0504 0.2697 0.0000
vt 0.0460 0.2669 0.0000
vt 0.0420 0.2617 0.0000
vt 0.0383 0.2533 0.0000
vt 0.0361 0.2434 0.0000
vt 0.0354 0.2328 0.0000
vt 0.0362 0.2221 0.0000
vt 0.0205 0.1790 0.0000
vt 0.0397 0.1268 0.0000
vt 0.0107 0.1388 0.0000
vt 0.0076 0.1054 0.0000
vt 0.0121 0.0821 0.0000
vt 0.0222 0.0733 0.0000
vt 0.0365 0.0766 0.0000
vt 0.0537 0.0909 0.0000
vt 0.0727 0.1151 0.0000
vt 0.0776 0.1211 0.0000
# 179 texture coords

o mirage
g mirage
s 1
f 1/1/1 2/1/2 3/1/2 
f 3/1/2 4/1/1 1/1/1 
f 5/1/3 1/1/1 4/1/1 
f 4/1/1 6/1/3 5/1/3 
f 7/1/4 5/1/3 6/1/3 
f 6/1/3 8/1/4 7/1/4 
f 9/1/5 7/1/4 8/1/4 
f 8/1/4 10/1/5 9/1/5 
f 11/1/6 9/1/5 10/1/5 
f 10/1/5 12/1/6 11/1/6 
f 13/1/7 11/1/6 12/1/6 
f 12/1/6 14/1/7 13/1/7 
f 15/1/8 13/1/7 14/1/7 
f 14/1/7 16/1/8 15/1/8 
f 17/1/9 15/1/8 16/1/8 
f 16/1/8 18/1/9 17/1/9 
s 2
f 19/1/10 17/1/11 18/1/11 
f 18/1/11 20/1/10 19/1/10 
f 21/1/12 19/1/10 20/1/10 
f 20/1/10 22/1/12 21/1/12 
f 23/1/13 21/1/12 22/1/12 
f 22/1/12 24/1/13 23/1/13 
f 25/1/14 23/1/13 24/1/13 
f 24/1/13 26/1/14 25/1/14 
s 1
f 27/1/15 25/1/16 26/1/16 
f 26/1/16 28/1/15 27/1/15 
f 29/1/17 27/1/15 28/1/15 
f 28/1/15 30/1/17 29/1/17 
f 31/1/18 29/1/17 30/1/17 
f 30/1/17 32/1/18 31/1/18 
f 33/1/19 31/1/18 32/1/18 
f 32/1/18 34/1/19 33/1/19 
f 35/1/20 33/1/19 34/1/19 
f 34/1/19 36/1/20 35/1/20 
f 37/1/21 35/1/20 36/1/20 
f 36/1/20 38/1/21 37/1/21 
f 39/1/22 37/1/21 38/1/21 
f 38/1/21 40/1/22 39/1/22 
f 41/1/23 39/1/22 40/1/22 
f 40/1/22 42/1/23 41/1/23 
f 43/1/24 41/1/23 42/1/23 
f 42/1/23 44/1/24 43/1/24 
f 45/1/25 43/1/25 44/1/25 
f 44/1/25 46/1/25 45/1/25 
s 2
f 47/1/26 45/1/27 46/1/27 
f 46/1/27 48/1/26 47/1/26 
f 49/1/28 47/1/26 48/1/26 
f 48/1/26 50/1/28 49/1/28 
f 51/1/29 49/1/28 50/1/28 
f 50/1/28 52/1/29 51/1/29 
f 53/1/30 51/1/29 52/1/29 
f 52/1/29 54/1/30 53/1/30 
f 55/1/31 53/1/30 54/1/30 
f 54/1/30 56/1/31 55/1/31 
f 57/1/32 55/1/31 56/1/31 
f 56/1/31 58/1/32 57/1/32 
s 1
f 59/1/33 57/1/33 58/1/33 
f 58/1/33 60/1/33 59/1/33 
s 2
f 61/1/34 59/1/35 60/1/35 
f 60/1/35 62/1/34 61/1/34 
f 63/1/36 61/1/34 62/1/34 
f 62/1/34 64/1/36 63/1/36 
f 65/1/37 63/1/36 64/1/36 
f 64/1/36 66/1/37 65/1/37 
f 67/1/38 65/1/37 66/1/37 
f 66/1/37 68/1/38 67/1/38 
f 69/1/39 67/1/38 68/1/38 
f 68/1/38 70/1/39 69/1/39 
f 71/1/40 69/1/39 70/1/39 
f 70/1/39 72/1/40 71/1/40 
f 73/1/41 71/1/40 72/1/40 
f 72/1/40 74/1/41 73/1/41 
f 75/1/42 73/1/41 74/1/41 
f 74/1/41 76/1/42 75/1/42 
f 77/1/43 75/1/42 76/1/42 
f 76/1/42 78/1/43 77/1/43 
f 79/1/44 77/1/43 78/1/43 
f 78/1/43 80/1/44 79/1/44 
f 81/1/45 79/1/44 80/1/44 
f 80/1/44 82/1/45 81/1/45 
f 83/1/46 81/1/45 82/1/45 
f 82/1/45 84/1/46 83/1/46 
f 85/1/47 83/1/46 84/1/46 
f 84/1/46 86/1/47 85/1/47 
s 1
f 87/1/48 85/1/49 86/1/49 
f 86/1/49 88/1/48 87/1/48 
f 89/1/50 87/1/48 88/1/48 
f 88/1/48 90/1/50 89/1/50 
f 91/1/51 89/1/50 90/1/50 
f 90/1/50 92/1/51 91/1/51 
f 93/1/52 91/1/51 92/1/51 
f 92/1/51 94/1/52 93/1/52 
f 95/1/53 93/1/52 94/1/52 
f 94/1/52 96/1/53 95/1/53 
f 97/1/54 95/1/53 96/1/53 
f 96/1/53 98/1/54 97/1/54 
f 99/1/55 97/1/54 98/1/54 
f 98/1/54 100/1/55 99/1/55 
f 101/1/56 99/1/55 100/1/55 
f 100/1/55 102/1/56 101/1/56 
f 103/1/57 101/1/56 102/1/56 
f 102/1/56 104/1/57 103/1/57 
f 105/1/58 103/1/57 104/1/57 
f 104/1/57 106/1/58 105/1/58 
f 107/1/59 105/1/58 106/1/58 
f 106/1/58 108/1/59 107/1/59 
f 109/1/60 107/1/59 108/1/59 
f 108/1/59 110/1/60 109/1/60 
f 111/1/61 109/1/60 110/1/60 
f 110/1/60 112/1/61 111/1/61 
f 113/1/62 111/1/61 112/1/61 
f 112/1/61 114/1/62 113/1/62 
f 115/1/63 113/1/62 114/1/62 
f 114/1/62 116/1/63 115/1/63 
f 117/1/64 115/1/63 116/1/63 
f 116/1/63 118/1/64 117/1/64 
f 119/1/65 117/1/64 118/1/64 
f 118/1/64 120/1/65 119/1/65 
f 121/1/66 119/1/65 120/1/65 
f 120/1/65 122/1/66 121/1/66 
f 123/1/67 121/1/66 122/1/66 
f 122/1/66 124/1/67 123/1/67 
f 125/1/68 123/1/67 124/1/67 
f 124/1/67 126/1/68 125/1/68 
f 127/1/69 125/1/68 126/1/68 
f 126/1/68 128/1/69 127/1/69 
f 129/1/70 127/1/69 128/1/69 
f 128/1/69 130/1/70 129/1/70 
f 131/1/71 129/1/70 130/1/70 
f 130/1/70 132/1/71 131/1/71 
f 133/1/72 131/1/71 132/1/71 
f 132/1/71 134/1/72 133/1/72 
f 135/1/73 133/1/72 134/1/72 
f 134/1/72 136/1/73 135/1/73 
f 137/1/74 135/1/73 136/1/73 
f 136/1/73 138/1/74 137/1/74 
f 139/1/75 137/1/74 138/1/74 
f 138/1/74 140/1/75 139/1/75 
f 141/1/76 139/1/75 140/1/75 
f 140/1/75 142/1/76 141/1/76 
f 143/1/77 141/1/76 142/1/76 
f 142/1/76 144/1/77 143/1/77 
f 145/1/78 143/1/77 144/1/77 
f 144/1/77 146/1/78 145/1/78 
f 147/1/79 145/1/78 146/1/78 
f 146/1/78 148/1/79 147/1/79 
f 149/1/80 147/1/79 148/1/79 
f 148/1/79 150/1/80 149/1/80 
f 151/1/81 149/1/80 150/1/80 
f 150/1/80 152/1/81 151/1/81 
f 153/1/82 151/1/81 152/1/81 
f 152/1/81 154/1/82 153/1/82 
f 155/1/83 153/1/82 154/1/82 
f 154/1/82 156/1/83 155/1/83 
f 157/1/84 155/1/83 156/1/83 
f 156/1/83 158/1/84 157/1/84 
f 159/1/85 157/1/84 158/1/84 
f 158/1/84 160/1/85 159/1/85 
s 2
f 161/1/86 159/1/86 160/1/86 
f 160/1/86 162/1/86 161/1/86 
f 163/1/87 161/1/88 162/1/88 
f 162/1/88 164/1/87 163/1/87 
f 165/1/89 163/1/87 164/1/87 
f 164/1/87 166/1/89 165/1/89 
f 167/1/90 165/1/89 166/1/89 
f 166/1/89 168/1/90 167/1/90 
f 2/1/91 167/1/90 168/1/90 
f 168/1/90 3/1/91 2/1/91 
s 4
f 50/2/92 48/3/92 169/4/92 
f 48/3/92 162/5/92 169/4/92 
f 162/5/92 160/6/92 169/4/92 
f 160/6/92 158/7/92 169/4/92 
f 158/7/92 156/8/92 169/4/92 
f 156/8/92 154/9/92 169/4/92 
f 154/9/92 152/10/92 169/4/92 
f 152/10/92 150/11/92 169/4/92 
f 150/11/92 148/12/92 169/4/92 
f 148/12/92 146/13/92 169/4/92 
f 146/13/92 144/14/92 169/4/92 
f 144/14/92 142/15/92 169/4/92 
f 142/15/92 140/16/92 169/4/92 
f 140/16/92 138/17/92 169/4/92 
f 138/17/92 136/18/92 169/4/92 
f 136/18/92 134/19/92 169/4/92 
f 134/19/92 132/20/92 169/4/92 
f 132/20/92 130/21/92 169/4/92 
f 130/21/92 128/22/92 169/4/92 
f 128/22/92 126/23/92 169/4/92 
f 126/23/92 124/24/92 169/4/92 
f 124/24/92 122/25/92 169/4/92 
f 122/25/92 120/26/92 169/4/92 
f 120/26/92 118/27/92 169/4/92 
f 118/27/92 116/28/92 169/4/92 
f 116/28/92 114/29/92 169/4/92 
f 114/29/92 112/30/92 169/4/92 
f 112/30/92 110/31/92 169/4/92 
f 110/31/92 108/32/92 169/4/92 
f 108/32/92 106/33/92 169/4/92 
f 106/33/92 104/34/92 169/4/92 
f 104/34/92 102/35/92 169/4/92 
f 102/35/92 100/36/92 169/4/92 
f 100/36/92 98/37/92 169/4/92 
f 98/37/92 96/38/92 169/4/92 
f 96/38/92 94/39/92 169/4/92 
f 94/39/92 92/40/92 169/4/92 
f 92/40/92 90/41/92 169/4/92 
f 90/41/92 88/42/92 169/4/92 
f 88/42/92 86/43/92 169/4/92 
f 86/43/92 84/44/92 169/4/92 
f 84/44/92 82/45/92 169/4/92 
f 82/45/92 80/46/92 169/4/92 
f 80/46/92 78/47/92 169/4/92 
f 78/47/92 76/48/92 169/4/92 
f 76/48/92 74/49/92 169/4/92 
f 74/49/92 72/50/92 169/4/92 
f 72/50/92 70/51/92 169/4/92 
f 70/51/92 68/52/92 169/4/92 
f 68/52/92 66/53/92 169/4/92 
f 66/53/92 64/54/92 169/4/92 
f 64/54/92 62/55/92 169/4/92 
f 62/55/92 60/56/92 169/4/92 
f 60/56/92 58/57/92 169/4/92 
f 58/57/92 56/58/92 169/4/92 
f 56/58/92 54/59/92 169/4/92 
f 54/59/92 52/60/92 169/4/92 
f 52/60/92 50/2/92 169/4/92 
f 47/61/93 49/62/93 170/63/93 
f 49/62/93 51/64/93 170/63/93 
f 51/64/93 53/65/93 170/63/93 
f 53/65/93 55/66/93 170/63/93 
f 55/66/93 57/67/93 170/63/93 
f 57/67/93 59/68/93 170/63/93 
f 59/68/93 61/69/93 170/63/93 
f 61/69/93 63/70/93 170/63/93 
f 63/70/93 65/71/93 170/63/93 
f 65/71/93 67/72/93 170/63/93 
f 67/72/93 69/73/93 170/63/93 
f 69/73/93 71/74/93 170/63/93 
f 71/74/93 73/75/93 170/63/93 
f 73/75/93 75/76/93 170/63/93 
f 75/76/93 77/77/93 170/63/93 
f 77/77/93 79/78/93 170/63/93 
f 79/78/93 81/79/93 170/63/93 
f 81/79/93 83/80/93 170/63/93 
f 83/80/93 85/81/93 170/63/93 
f 85/81/93 87/82/93 170/63/93 
f 87/82/93 89/83/93 170/63/93 
f 89/83/93 91/84/93 170/63/93 
f 91/84/93 93/85/93 170/63/93 
f 93/85/93 95/86/93 170/63/93 
f 95/86/93 97/87/93 170/63/93 
f 97/87/93 99/88/93 170/63/93 
f 99/88/93 101/89/93 170/63/93 
f 101/89/93 103/90/93 170/63/93 
f 103/90/93 105/91/93 170/63/93 
f 105/91/93 107/92/93 170/63/93 
f 107/92/93 109/93/93 170/63/93 
f 109/93/93 111/94/93 170/63/93 
f 111/94/93 113/95/93 170/63/93 
f 113/95/93 115/96/93 170/63/93 
f 115/96/93 117/97/93 170/63/93 
f 117/97/93 119/98/93 170/63/93 
f 119/98/93 121/99/93 170/63/93 
f 121/99/93 123/100/93 170/63/93 
f 123/100/93 125/101/93 170/63/93 
f 125/101/93 127/102/93 170/63/93 
f 127/102/93 129/103/93 170/63/93 
f 129/103/93 131/104/93 170/63/93 
f 131/104/93 133/105/93 170/63/93 
f 133/105/93 135/106/93 170/63/93 
f 135/106/93 137/107/93 170/63/93 
f 137/107/93 139/108/93 170/63/93 
f 139/108/93 141/109/93 170/63/93 
f 141/109/93 143/110/93 170/63/93 
f 143/110/93 145/111/93 170/63/93 
f 145/111/93 147/112/93 170/63/93 
f 147/112/93 149/113/93 170/63/93 
f 149/113/93 151/114/93 170/63/93 
f 151/114/93 153/115/93 170/63/93 
f 153/115/93 155/116/93 170/63/93 
f 155/116/93 157/117/93 170/63/93 
f 157/117/93 159/118/93 170/63/93 
f 159/118/93 161/119/93 170/63/93 
f 161/119/93 47/61/93 170/63/93 
f 48/3/92 46/120/92 171/121/92 
f 46/120/92 44/122/92 171/121/92 
f 44/122/92 42/123/92 171/121/92 
f 42/123/92 40/124/92 171/121/92 
f 40/124/92 162/5/92 171/121/92 
f 162/5/92 48/3/92 171/121/92 
f 161/119/93 39/125/93 172/126/93 
f 39/125/93 41/127/93 172/126/93 
f 41/127/93 43/128/93 172/126/93 
f 43/128/93 45/129/93 172/126/93 
f 45/129/93 47/61/93 172/126/93 
f 47/61/93 161/119/93 172/126/93 
f 40/124/92 38/130/92 173/131/92 
f 38/130/92 3/132/92 173/131/92 
f 3/132/92 168/133/92 173/131/92 
f 168/133/92 166/134/92 173/131/92 
f 166/134/92 164/135/92 173/131/92 
f 164/135/92 162/5/92 173/131/92 
f 162/5/92 40/124/92 173/131/92 
f 161/119/93 163/136/93 174/137/93 
f 163/136/93 165/138/93 174/137/93 
f 165/138/93 167/139/93 174/137/93 
f 167/139/93 2/140/93 174/137/93 
f 2/140/93 37/141/93 174/137/93 
f 37/141/93 39/125/93 174/137/93 
f 39/125/93 161/119/93 174/137/93 
f 38/130/92 36/142/92 175/143/92 
f 36/142/92 34/144/92 175/143/92 
f 34/144/92 32/145/92 175/143/92 
f 32/145/92 30/146/92 175/143/92 
f 30/146/92 28/147/92 175/143/92 
f 28/147/92 26/148/92 175/143/92 
f 26/148/92 24/149/92 175/143/92 
f 24/149/92 22/150/92 175/143/92 
f 22/150/92 20/151/92 175/143/92 
f 20/151/92 18/152/92 175/143/92 
f 18/152/92 38/130/92 175/143/92 
f 38/130/92 18/152/92 176/153/92 
f 18/152/92 16/154/92 176/153/92 
f 16/154/92 14/155/92 176/153/92 
f 14/155/92 12/156/92 176/153/92 
f 12/156/92 10/157/92 176/153/92 
f 10/157/92 8/158/92 176/153/92 
f 8/158/92 6/159/92 176/153/92 
f 6/159/92 4/160/92 176/153/92 
f 4/160/92 3/132/92 176/153/92 
f 3/132/92 38/130/92 176/153/92 
f 2/140/93 1/161/93 177/162/93 
f 1/161/93 5/163/93 177/162/93 
f 5/163/93 7/164/93 177/162/93 
f 7/164/93 9/165/93 177/162/93 
f 9/165/93 11/166/93 177/162/93 
f 11/166/93 13/167/93 177/162/93 
f 13/167/93 15/168/93 177/162/93 
f 15/168/93 17/169/93 177/162/93 
f 17/169/93 37/141/93 177/162/93 
f 37/141/93 2/140/93 177/162/93 
f 17/169/93 19/170/93 178/171/93 
f 19/170/93 21/172/93 178/171/93 
f 21/172/93 23/173/93 178/171/93 
f 23/173/93 25/174/93 178/171/93 
f 25/174/93 27/175/93 178/171/93 
f 27/175/93 29/176/93 178/171/93 
f 29/176/93 31/177/93 178/171/93 
f 31/177/93 33/178/93 178/171/93 
f 33/178/93 35/179/93 178/171/93 
f 35/179/93 37/141/93 178/171/93 
f 37/141/93 17/169/93 178/171/93 
# 352 faces

